# xmcd
#
# Track frame offsets: 
#        150
#        15840
#        27146
#        48509
#        61263
#        75911
#        95120
#        109715
#        124075
#        133627
#        149473
#
# Disc length: 2235 seconds
#
# Revision: 0
# Processed by: cddbd v1.5.2PL0 Copyright (c) Steve Scherf et al.
# Submitted via: ExactAudioCopy v1.0b3
#
DISCID=8708b90b
DTITLE=Needhams - Vintage
DYEAR=2011
DGENRE=Southern Gospel
TTITLE0=Amazing Grace (My Chains Are Gone)
TTITLE1=Sailing On Toward Home
TTITLE2=Lead Me To The Garden
TTITLE3=It Is Well
TTITLE4=One Way Or Another
TTITLE5=Strength To Climb
TTITLE6=Almost Home
TTITLE7=He Pilots My Ship
TTITLE8=I'm On The Battlefield
TTITLE9=How Beautiful Heaven Must Be
TTITLE10=Blessed (featuring Corina Needham)
EXTD=
EXTT0=
EXTT1=
EXTT2=
EXTT3=
EXTT4=
EXTT5=
EXTT6=
EXTT7=
EXTT8=
EXTT9=
EXTT10=
PLAYORDER=
